<svg width="213" height="98" viewBox="0 0 213 98" fill="none" xmlns="http://www.w3.org/2000/svg">
<rect x="7" y="1" width="206" height="97" rx="24" fill="url(#paint0_linear_11_33)"/>
<rect width="206" height="90" rx="24" fill="white"/>
<path d="M70.836 23.136C70.932 20.568 71.772 18.588 73.356 17.196C74.94 15.804 77.088 15.108 79.8 15.108C81.6 15.108 83.136 15.42 84.408 16.044C85.704 16.668 86.676 17.52 87.324 18.6C87.996 19.68 88.332 20.892 88.332 22.236C88.332 23.82 87.936 25.116 87.144 26.124C86.352 27.108 85.428 27.78 84.372 28.14V28.284C85.74 28.74 86.82 29.496 87.612 30.552C88.404 31.608 88.8 32.964 88.8 34.62C88.8 36.108 88.452 37.428 87.756 38.58C87.084 39.708 86.088 40.596 84.768 41.244C83.472 41.892 81.924 42.216 80.124 42.216C77.244 42.216 74.94 41.508 73.212 40.092C71.508 38.676 70.608 36.54 70.512 33.684H76.488C76.512 34.74 76.812 35.58 77.388 36.204C77.964 36.804 78.804 37.104 79.908 37.104C80.844 37.104 81.564 36.84 82.068 36.312C82.596 35.76 82.86 35.04 82.86 34.152C82.86 33 82.488 32.172 81.744 31.668C81.024 31.14 79.86 30.876 78.252 30.876H77.1V25.872H78.252C79.476 25.872 80.46 25.668 81.204 25.26C81.972 24.828 82.356 24.072 82.356 22.992C82.356 22.128 82.116 21.456 81.636 20.976C81.156 20.496 80.496 20.256 79.656 20.256C78.744 20.256 78.06 20.532 77.604 21.084C77.172 21.636 76.92 22.32 76.848 23.136H70.836ZM92.2009 37.068C93.0169 36.42 93.3889 36.12 93.3169 36.168C95.6689 34.224 97.5169 32.628 98.8609 31.38C100.229 30.132 101.381 28.824 102.317 27.456C103.253 26.088 103.721 24.756 103.721 23.46C103.721 22.476 103.493 21.708 103.037 21.156C102.581 20.604 101.897 20.328 100.985 20.328C100.073 20.328 99.3529 20.676 98.8249 21.372C98.3209 22.044 98.0689 23.004 98.0689 24.252H92.1289C92.1769 22.212 92.6089 20.508 93.4249 19.14C94.2649 17.772 95.3569 16.764 96.7009 16.116C98.0689 15.468 99.5809 15.144 101.237 15.144C104.093 15.144 106.241 15.876 107.681 17.34C109.145 18.804 109.877 20.712 109.877 23.064C109.877 25.632 109.001 28.02 107.249 30.228C105.497 32.412 103.265 34.548 100.553 36.636H110.273V41.64H92.2009V37.068ZM128.247 42L119.751 30.84V42H113.595V16.728H119.751V27.816L128.175 16.728H135.411L125.619 29.112L135.771 42H128.247Z" fill="#023047"/>
<path d="M37.768 68.112C37.032 68.112 36.3707 67.984 35.784 67.728C35.208 67.4613 34.7547 67.0987 34.424 66.64C34.0933 66.1707 33.9227 65.632 33.912 65.024H35.464C35.5173 65.5467 35.7307 65.9893 36.104 66.352C36.488 66.704 37.0427 66.88 37.768 66.88C38.4613 66.88 39.0053 66.7093 39.4 66.368C39.8053 66.016 40.008 65.568 40.008 65.024C40.008 64.5973 39.8907 64.2507 39.656 63.984C39.4213 63.7173 39.128 63.5147 38.776 63.376C38.424 63.2373 37.9493 63.088 37.352 62.928C36.616 62.736 36.024 62.544 35.576 62.352C35.1387 62.16 34.76 61.8613 34.44 61.456C34.1307 61.04 33.976 60.4853 33.976 59.792C33.976 59.184 34.1307 58.6453 34.44 58.176C34.7493 57.7067 35.1813 57.344 35.736 57.088C36.3013 56.832 36.9467 56.704 37.672 56.704C38.7173 56.704 39.5707 56.9653 40.232 57.488C40.904 58.0107 41.2827 58.704 41.368 59.568H39.768C39.7147 59.1413 39.4907 58.768 39.096 58.448C38.7013 58.1173 38.1787 57.952 37.528 57.952C36.92 57.952 36.424 58.112 36.04 58.432C35.656 58.7413 35.464 59.1787 35.464 59.744C35.464 60.1493 35.576 60.48 35.8 60.736C36.0347 60.992 36.3173 61.1893 36.648 61.328C36.9893 61.456 37.464 61.6053 38.072 61.776C38.808 61.9787 39.4 62.1813 39.848 62.384C40.296 62.576 40.68 62.88 41 63.296C41.32 63.7013 41.48 64.256 41.48 64.96C41.48 65.504 41.336 66.016 41.048 66.496C40.76 66.976 40.3333 67.3653 39.768 67.664C39.2027 67.9627 38.536 68.112 37.768 68.112ZM45.3986 60.432V65.6C45.3986 66.0267 45.4893 66.3307 45.6706 66.512C45.852 66.6827 46.1666 66.768 46.6146 66.768H47.6866V68H46.3746C45.564 68 44.956 67.8133 44.5506 67.44C44.1453 67.0667 43.9426 66.4533 43.9426 65.6V60.432H42.8066V59.232H43.9426V57.024H45.3986V59.232H47.6866V60.432H45.3986ZM57.2268 59.232V68H55.7708V66.704C55.4934 67.152 55.1041 67.504 54.6028 67.76C54.1121 68.0053 53.5681 68.128 52.9708 68.128C52.2881 68.128 51.6748 67.9893 51.1308 67.712C50.5868 67.424 50.1548 66.9973 49.8348 66.432C49.5254 65.8667 49.3708 65.1787 49.3708 64.368V59.232H50.8108V64.176C50.8108 65.04 51.0294 65.7067 51.4668 66.176C51.9041 66.6347 52.5014 66.864 53.2588 66.864C54.0374 66.864 54.6508 66.624 55.0988 66.144C55.5468 65.664 55.7708 64.9653 55.7708 64.048V59.232H57.2268ZM59.1411 63.584C59.1411 62.688 59.3225 61.904 59.6851 61.232C60.0478 60.5493 60.5438 60.0213 61.1731 59.648C61.8131 59.2747 62.5278 59.088 63.3171 59.088C63.9998 59.088 64.6345 59.248 65.2211 59.568C65.8078 59.8773 66.2558 60.288 66.5651 60.8V56.16H68.0371V68H66.5651V66.352C66.2771 66.8747 65.8505 67.3067 65.2851 67.648C64.7198 67.9787 64.0585 68.144 63.3011 68.144C62.5225 68.144 61.8131 67.952 61.1731 67.568C60.5438 67.184 60.0478 66.6453 59.6851 65.952C59.3225 65.2587 59.1411 64.4693 59.1411 63.584ZM66.5651 63.6C66.5651 62.9387 66.4318 62.3627 66.1651 61.872C65.8985 61.3813 65.5358 61.008 65.0771 60.752C64.6291 60.4853 64.1331 60.352 63.5891 60.352C63.0451 60.352 62.5491 60.48 62.1011 60.736C61.6531 60.992 61.2958 61.3653 61.0291 61.856C60.7625 62.3467 60.6291 62.9227 60.6291 63.584C60.6291 64.256 60.7625 64.8427 61.0291 65.344C61.2958 65.8347 61.6531 66.2133 62.1011 66.48C62.5491 66.736 63.0451 66.864 63.5891 66.864C64.1331 66.864 64.6291 66.736 65.0771 66.48C65.5358 66.2133 65.8985 65.8347 66.1651 65.344C66.4318 64.8427 66.5651 64.2613 66.5651 63.6ZM78.4976 63.28C78.4976 63.5573 78.4816 63.8507 78.4496 64.16H71.4416C71.495 65.024 71.7883 65.7013 72.3216 66.192C72.8656 66.672 73.5216 66.912 74.2896 66.912C74.919 66.912 75.4416 66.768 75.8576 66.48C76.2843 66.1813 76.583 65.7867 76.7536 65.296H78.3216C78.087 66.1387 77.6176 66.8267 76.9136 67.36C76.2096 67.8827 75.335 68.144 74.2896 68.144C73.4576 68.144 72.711 67.9573 72.0496 67.584C71.399 67.2107 70.887 66.6827 70.5136 66C70.1403 65.3067 69.9536 64.5067 69.9536 63.6C69.9536 62.6933 70.135 61.8987 70.4976 61.216C70.8603 60.5333 71.367 60.0107 72.0176 59.648C72.679 59.2747 73.4363 59.088 74.2896 59.088C75.1216 59.088 75.8576 59.2693 76.4976 59.632C77.1376 59.9947 77.6283 60.496 77.9696 61.136C78.3216 61.7653 78.4976 62.48 78.4976 63.28ZM76.9936 62.976C76.9936 62.4213 76.871 61.9467 76.6256 61.552C76.3803 61.1467 76.0443 60.8427 75.6176 60.64C75.2016 60.4267 74.7376 60.32 74.2256 60.32C73.4896 60.32 72.8603 60.5547 72.3376 61.024C71.8256 61.4933 71.5323 62.144 71.4576 62.976H76.9936ZM84.6915 59.072C85.7582 59.072 86.6222 59.3973 87.2835 60.048C87.9448 60.688 88.2755 61.616 88.2755 62.832V68H86.8355V63.04C86.8355 62.1653 86.6168 61.4987 86.1795 61.04C85.7422 60.5707 85.1448 60.336 84.3875 60.336C83.6195 60.336 83.0062 60.576 82.5475 61.056C82.0995 61.536 81.8755 62.2347 81.8755 63.152V68H80.4195V59.232H81.8755V60.48C82.1635 60.032 82.5528 59.6853 83.0435 59.44C83.5448 59.1947 84.0942 59.072 84.6915 59.072ZM92.4299 60.432V65.6C92.4299 66.0267 92.5205 66.3307 92.7019 66.512C92.8832 66.6827 93.1979 66.768 93.6459 66.768H94.7179V68H93.4059C92.5952 68 91.9872 67.8133 91.5819 67.44C91.1765 67.0667 90.9739 66.4533 90.9739 65.6V60.432H89.8379V59.232H90.9739V57.024H92.4299V59.232H94.7179V60.432H92.4299ZM99.586 68.144C98.914 68.144 98.3113 68.032 97.778 67.808C97.2447 67.5733 96.8233 67.2533 96.514 66.848C96.2047 66.432 96.034 65.9573 96.002 65.424H97.506C97.5487 65.8613 97.7513 66.2187 98.114 66.496C98.4873 66.7733 98.9727 66.912 99.57 66.912C100.125 66.912 100.562 66.7893 100.882 66.544C101.202 66.2987 101.362 65.9893 101.362 65.616C101.362 65.232 101.191 64.9493 100.85 64.768C100.509 64.576 99.9807 64.3893 99.266 64.208C98.6153 64.0373 98.082 63.8667 97.666 63.696C97.2607 63.5147 96.9087 63.2533 96.61 62.912C96.322 62.56 96.178 62.1013 96.178 61.536C96.178 61.088 96.3113 60.6773 96.578 60.304C96.8447 59.9307 97.2233 59.6373 97.714 59.424C98.2047 59.2 98.7647 59.088 99.394 59.088C100.365 59.088 101.149 59.3333 101.746 59.824C102.343 60.3147 102.663 60.9867 102.706 61.84H101.25C101.218 61.3813 101.031 61.0133 100.69 60.736C100.359 60.4587 99.9113 60.32 99.346 60.32C98.8233 60.32 98.4073 60.432 98.098 60.656C97.7887 60.88 97.634 61.1733 97.634 61.536C97.634 61.824 97.7247 62.064 97.906 62.256C98.098 62.4373 98.3327 62.5867 98.61 62.704C98.898 62.8107 99.2927 62.9333 99.794 63.072C100.423 63.2427 100.935 63.4133 101.33 63.584C101.725 63.744 102.061 63.9893 102.338 64.32C102.626 64.6507 102.775 65.0827 102.786 65.616C102.786 66.096 102.653 66.528 102.386 66.912C102.119 67.296 101.741 67.6 101.25 67.824C100.77 68.0373 100.215 68.144 99.586 68.144ZM110.563 58.032V61.76H114.627V62.96H110.563V66.8H115.107V68H109.107V56.832H115.107V58.032H110.563ZM121.582 59.072C122.649 59.072 123.513 59.3973 124.174 60.048C124.835 60.688 125.166 61.616 125.166 62.832V68H123.726V63.04C123.726 62.1653 123.507 61.4987 123.07 61.04C122.633 60.5707 122.035 60.336 121.278 60.336C120.51 60.336 119.897 60.576 119.438 61.056C118.99 61.536 118.766 62.2347 118.766 63.152V68H117.31V59.232H118.766V60.48C119.054 60.032 119.443 59.6853 119.934 59.44C120.435 59.1947 120.985 59.072 121.582 59.072ZM129.001 60.656C129.257 60.1547 129.619 59.7653 130.089 59.488C130.569 59.2107 131.15 59.072 131.833 59.072V60.576H131.449C129.817 60.576 129.001 61.4613 129.001 63.232V68H127.545V59.232H129.001V60.656ZM137.337 68.144C136.516 68.144 135.769 67.9573 135.097 67.584C134.436 67.2107 133.913 66.6827 133.529 66C133.156 65.3067 132.969 64.5067 132.969 63.6C132.969 62.704 133.161 61.9147 133.545 61.232C133.94 60.5387 134.473 60.0107 135.145 59.648C135.817 59.2747 136.569 59.088 137.401 59.088C138.233 59.088 138.985 59.2747 139.657 59.648C140.329 60.0107 140.857 60.5333 141.241 61.216C141.636 61.8987 141.833 62.6933 141.833 63.6C141.833 64.5067 141.631 65.3067 141.225 66C140.831 66.6827 140.292 67.2107 139.609 67.584C138.927 67.9573 138.169 68.144 137.337 68.144ZM137.337 66.864C137.86 66.864 138.351 66.7413 138.809 66.496C139.268 66.2507 139.636 65.8827 139.913 65.392C140.201 64.9013 140.345 64.304 140.345 63.6C140.345 62.896 140.207 62.2987 139.929 61.808C139.652 61.3173 139.289 60.9547 138.841 60.72C138.393 60.4747 137.908 60.352 137.385 60.352C136.852 60.352 136.361 60.4747 135.913 60.72C135.476 60.9547 135.124 61.3173 134.857 61.808C134.591 62.2987 134.457 62.896 134.457 63.6C134.457 64.3147 134.585 64.9173 134.841 65.408C135.108 65.8987 135.46 66.2667 135.897 66.512C136.335 66.7467 136.815 66.864 137.337 66.864ZM145.204 56.16V68H143.748V56.16H145.204ZM149.141 56.16V68H147.685V56.16H149.141ZM159.623 63.28C159.623 63.5573 159.607 63.8507 159.575 64.16H152.567C152.62 65.024 152.913 65.7013 153.447 66.192C153.991 66.672 154.647 66.912 155.415 66.912C156.044 66.912 156.567 66.768 156.983 66.48C157.409 66.1813 157.708 65.7867 157.879 65.296H159.447C159.212 66.1387 158.743 66.8267 158.039 67.36C157.335 67.8827 156.46 68.144 155.415 68.144C154.583 68.144 153.836 67.9573 153.175 67.584C152.524 67.2107 152.012 66.6827 151.639 66C151.265 65.3067 151.079 64.5067 151.079 63.6C151.079 62.6933 151.26 61.8987 151.623 61.216C151.985 60.5333 152.492 60.0107 153.143 59.648C153.804 59.2747 154.561 59.088 155.415 59.088C156.247 59.088 156.983 59.2693 157.623 59.632C158.263 59.9947 158.753 60.496 159.095 61.136C159.447 61.7653 159.623 62.48 159.623 63.28ZM158.119 62.976C158.119 62.4213 157.996 61.9467 157.751 61.552C157.505 61.1467 157.169 60.8427 156.743 60.64C156.327 60.4267 155.863 60.32 155.351 60.32C154.615 60.32 153.985 60.5547 153.463 61.024C152.951 61.4933 152.657 62.144 152.583 62.976H158.119ZM161.001 63.584C161.001 62.688 161.182 61.904 161.545 61.232C161.907 60.5493 162.403 60.0213 163.033 59.648C163.673 59.2747 164.387 59.088 165.177 59.088C165.859 59.088 166.494 59.248 167.081 59.568C167.667 59.8773 168.115 60.288 168.425 60.8V56.16H169.897V68H168.425V66.352C168.137 66.8747 167.71 67.3067 167.145 67.648C166.579 67.9787 165.918 68.144 165.161 68.144C164.382 68.144 163.673 67.952 163.033 67.568C162.403 67.184 161.907 66.6453 161.545 65.952C161.182 65.2587 161.001 64.4693 161.001 63.584ZM168.425 63.6C168.425 62.9387 168.291 62.3627 168.025 61.872C167.758 61.3813 167.395 61.008 166.937 60.752C166.489 60.4853 165.993 60.352 165.449 60.352C164.905 60.352 164.409 60.48 163.961 60.736C163.513 60.992 163.155 61.3653 162.889 61.856C162.622 62.3467 162.489 62.9227 162.489 63.584C162.489 64.256 162.622 64.8427 162.889 65.344C163.155 65.8347 163.513 66.2133 163.961 66.48C164.409 66.736 164.905 66.864 165.449 66.864C165.993 66.864 166.489 66.736 166.937 66.48C167.395 66.2133 167.758 65.8347 168.025 65.344C168.291 64.8427 168.425 64.2613 168.425 63.6Z" fill="#023047"/>
<defs>
<linearGradient id="paint0_linear_11_33" x1="110" y1="1" x2="110" y2="98" gradientUnits="userSpaceOnUse">
<stop stop-color="#6F7DFB"/>
<stop offset="1" stop-color="#3B448F"/>
</linearGradient>
</defs>
</svg>
