<svg width="183" height="59" viewBox="0 0 183 59" fill="none" xmlns="http://www.w3.org/2000/svg">
<rect width="183" height="59" rx="24" fill="#DA722C"/>
<path d="M47.6726 22.8274C47.3351 22.49 46.8773 22.3004 46.4 22.3004C45.9228 22.3004 45.465 22.49 45.1274 22.8274L38.3 29.6548V32.2H40.8452L47.6726 25.3726C48.0101 25.0351 48.1997 24.5773 48.1997 24.1C48.1997 23.6227 48.0101 23.165 47.6726 22.8274Z" fill="white"/>
<path fill-rule="evenodd" clip-rule="evenodd" d="M33.8 25.9C33.8 25.4226 33.9897 24.9647 34.3273 24.6272C34.6648 24.2896 35.1227 24.1 35.6 24.1H39.2C39.4387 24.1 39.6677 24.1948 39.8364 24.3636C40.0052 24.5324 40.1 24.7613 40.1 25C40.1 25.2387 40.0052 25.4676 39.8364 25.6364C39.6677 25.8052 39.4387 25.9 39.2 25.9H35.6V34.9H44.6V31.3C44.6 31.0613 44.6949 30.8324 44.8637 30.6636C45.0324 30.4948 45.2614 30.4 45.5 30.4C45.7387 30.4 45.9677 30.4948 46.1364 30.6636C46.3052 30.8324 46.4 31.0613 46.4 31.3V34.9C46.4 35.3774 46.2104 35.8352 45.8728 36.1728C45.5353 36.5103 45.0774 36.7 44.6 36.7H35.6C35.1227 36.7 34.6648 36.5103 34.3273 36.1728C33.9897 35.8352 33.8 35.3774 33.8 34.9V25.9Z" fill="white"/>
<path d="M64.194 25.83V28.386H68.316V30.762H64.194V33.534H68.856V36H61.116V23.364H68.856V25.83H64.194ZM76.9743 25.848C78.1503 25.848 79.0863 26.232 79.7823 27C80.4903 27.756 80.8443 28.8 80.8443 30.132V36H77.7843V30.546C77.7843 29.874 77.6103 29.352 77.2623 28.98C76.9143 28.608 76.4463 28.422 75.8583 28.422C75.2703 28.422 74.8023 28.608 74.4543 28.98C74.1063 29.352 73.9323 29.874 73.9323 30.546V36H70.8543V25.956H73.9323V27.288C74.2443 26.844 74.6643 26.496 75.1923 26.244C75.7203 25.98 76.3143 25.848 76.9743 25.848ZM86.0612 27.63C86.4212 27.078 86.8712 26.646 87.4112 26.334C87.9512 26.01 88.5512 25.848 89.2112 25.848V29.106H88.3652C87.5972 29.106 87.0212 29.274 86.6372 29.61C86.2532 29.934 86.0612 30.51 86.0612 31.338V36H82.9832V25.956H86.0612V27.63ZM95.2544 36.144C94.2704 36.144 93.3824 35.934 92.5904 35.514C91.8104 35.094 91.1924 34.494 90.7364 33.714C90.2924 32.934 90.0704 32.022 90.0704 30.978C90.0704 29.946 90.2984 29.04 90.7544 28.26C91.2104 27.468 91.8344 26.862 92.6264 26.442C93.4184 26.022 94.3064 25.812 95.2904 25.812C96.2744 25.812 97.1624 26.022 97.9544 26.442C98.7464 26.862 99.3704 27.468 99.8264 28.26C100.282 29.04 100.51 29.946 100.51 30.978C100.51 32.01 100.276 32.922 99.8084 33.714C99.3524 34.494 98.7224 35.094 97.9184 35.514C97.1264 35.934 96.2384 36.144 95.2544 36.144ZM95.2544 33.48C95.8424 33.48 96.3404 33.264 96.7484 32.832C97.1684 32.4 97.3784 31.782 97.3784 30.978C97.3784 30.174 97.1744 29.556 96.7664 29.124C96.3704 28.692 95.8784 28.476 95.2904 28.476C94.6904 28.476 94.1924 28.692 93.7964 29.124C93.4004 29.544 93.2024 30.162 93.2024 30.978C93.2024 31.782 93.3944 32.4 93.7784 32.832C94.1744 33.264 94.6664 33.48 95.2544 33.48ZM105.221 22.68V36H102.143V22.68H105.221ZM122.57 36H119.492L114.344 28.206V36H111.266V23.364H114.344L119.492 31.194V23.364H122.57V36ZM129.374 36.144C128.39 36.144 127.502 35.934 126.71 35.514C125.93 35.094 125.312 34.494 124.856 33.714C124.412 32.934 124.19 32.022 124.19 30.978C124.19 29.946 124.418 29.04 124.874 28.26C125.33 27.468 125.954 26.862 126.746 26.442C127.538 26.022 128.426 25.812 129.41 25.812C130.394 25.812 131.282 26.022 132.074 26.442C132.866 26.862 133.49 27.468 133.946 28.26C134.402 29.04 134.63 29.946 134.63 30.978C134.63 32.01 134.396 32.922 133.928 33.714C133.472 34.494 132.842 35.094 132.038 35.514C131.246 35.934 130.358 36.144 129.374 36.144ZM129.374 33.48C129.962 33.48 130.46 33.264 130.868 32.832C131.288 32.4 131.498 31.782 131.498 30.978C131.498 30.174 131.294 29.556 130.886 29.124C130.49 28.692 129.998 28.476 129.41 28.476C128.81 28.476 128.312 28.692 127.916 29.124C127.52 29.544 127.322 30.162 127.322 30.978C127.322 31.782 127.514 32.4 127.898 32.832C128.294 33.264 128.786 33.48 129.374 33.48ZM150.68 25.956L147.962 36H144.56L142.976 29.484L141.338 36H137.954L135.218 25.956H138.296L139.718 33.138L141.41 25.956H144.668L146.378 33.102L147.782 25.956H150.68Z" fill="white"/>
</svg>
