<svg width="155" height="59" viewBox="0 0 155 59" fill="none" xmlns="http://www.w3.org/2000/svg">
<rect width="155" height="59" rx="24" fill="#023047"/>
<path d="M36.194 25.83V28.386H40.316V30.762H36.194V33.534H40.856V36H33.116V23.364H40.856V25.83H36.194ZM48.9743 25.848C50.1503 25.848 51.0863 26.232 51.7823 27C52.4903 27.756 52.8443 28.8 52.8443 30.132V36H49.7843V30.546C49.7843 29.874 49.6103 29.352 49.2623 28.98C48.9143 28.608 48.4463 28.422 47.8583 28.422C47.2703 28.422 46.8023 28.608 46.4543 28.98C46.1063 29.352 45.9323 29.874 45.9323 30.546V36H42.8543V25.956H45.9323V27.288C46.2443 26.844 46.6643 26.496 47.1923 26.244C47.7203 25.98 48.3143 25.848 48.9743 25.848ZM58.0612 27.63C58.4212 27.078 58.8712 26.646 59.4112 26.334C59.9512 26.01 60.5512 25.848 61.2112 25.848V29.106H60.3652C59.5972 29.106 59.0212 29.274 58.6372 29.61C58.2532 29.934 58.0612 30.51 58.0612 31.338V36H54.9832V25.956H58.0612V27.63ZM67.2544 36.144C66.2704 36.144 65.3824 35.934 64.5904 35.514C63.8104 35.094 63.1924 34.494 62.7364 33.714C62.2924 32.934 62.0704 32.022 62.0704 30.978C62.0704 29.946 62.2984 29.04 62.7544 28.26C63.2104 27.468 63.8344 26.862 64.6264 26.442C65.4184 26.022 66.3064 25.812 67.2904 25.812C68.2744 25.812 69.1624 26.022 69.9544 26.442C70.7464 26.862 71.3704 27.468 71.8264 28.26C72.2824 29.04 72.5104 29.946 72.5104 30.978C72.5104 32.01 72.2764 32.922 71.8084 33.714C71.3524 34.494 70.7224 35.094 69.9184 35.514C69.1264 35.934 68.2384 36.144 67.2544 36.144ZM67.2544 33.48C67.8424 33.48 68.3404 33.264 68.7484 32.832C69.1684 32.4 69.3784 31.782 69.3784 30.978C69.3784 30.174 69.1744 29.556 68.7664 29.124C68.3704 28.692 67.8784 28.476 67.2904 28.476C66.6904 28.476 66.1924 28.692 65.7964 29.124C65.4004 29.544 65.2024 30.162 65.2024 30.978C65.2024 31.782 65.3944 32.4 65.7784 32.832C66.1744 33.264 66.6664 33.48 67.2544 33.48ZM77.2213 22.68V36H74.1433V22.68H77.2213ZM94.5704 36H91.4924L86.3444 28.206V36H83.2664V23.364H86.3444L91.4924 31.194V23.364H94.5704V36ZM101.374 36.144C100.39 36.144 99.5015 35.934 98.7095 35.514C97.9295 35.094 97.3115 34.494 96.8555 33.714C96.4115 32.934 96.1895 32.022 96.1895 30.978C96.1895 29.946 96.4175 29.04 96.8735 28.26C97.3295 27.468 97.9535 26.862 98.7455 26.442C99.5375 26.022 100.426 25.812 101.41 25.812C102.394 25.812 103.282 26.022 104.074 26.442C104.866 26.862 105.49 27.468 105.946 28.26C106.402 29.04 106.63 29.946 106.63 30.978C106.63 32.01 106.396 32.922 105.928 33.714C105.472 34.494 104.842 35.094 104.038 35.514C103.246 35.934 102.358 36.144 101.374 36.144ZM101.374 33.48C101.962 33.48 102.46 33.264 102.868 32.832C103.288 32.4 103.498 31.782 103.498 30.978C103.498 30.174 103.294 29.556 102.886 29.124C102.49 28.692 101.998 28.476 101.41 28.476C100.81 28.476 100.312 28.692 99.9155 29.124C99.5195 29.544 99.3215 30.162 99.3215 30.978C99.3215 31.782 99.5135 32.4 99.8975 32.832C100.294 33.264 100.786 33.48 101.374 33.48ZM122.68 25.956L119.962 36H116.56L114.976 29.484L113.338 36H109.954L107.218 25.956H110.296L111.718 33.138L113.41 25.956H116.668L118.378 33.102L119.782 25.956H122.68Z" fill="white"/>
</svg>
