<svg width="188" height="98" viewBox="0 0 188 98" fill="none" xmlns="http://www.w3.org/2000/svg">
<rect x="3" y="3" width="185" height="95" rx="24" fill="url(#paint0_linear_11_41)"/>
<rect width="183" height="90" rx="24" fill="white"/>
<path d="M45.764 39.32V34.352L57.14 18.08H64.016V33.992H66.968V39.32H64.016V44H57.86V39.32H45.764ZM58.292 24.848L52.244 33.992H58.292V24.848ZM73.4753 44.288C72.3953 44.288 71.5073 43.976 70.8113 43.352C70.1393 42.704 69.8033 41.912 69.8033 40.976C69.8033 40.016 70.1393 39.212 70.8113 38.564C71.5073 37.916 72.3953 37.592 73.4753 37.592C74.5313 37.592 75.3953 37.916 76.0673 38.564C76.7633 39.212 77.1113 40.016 77.1113 40.976C77.1113 41.912 76.7633 42.704 76.0673 43.352C75.3953 43.976 74.5313 44.288 73.4753 44.288ZM96.9194 22.328L87.8834 44H81.5834L90.7274 23.012H79.5314V17.756H96.9194V22.328Z" fill="#023047"/>
<path d="M47.288 70.112C46.2533 70.112 45.3093 69.872 44.456 69.392C43.6027 68.9013 42.9253 68.224 42.424 67.36C41.9333 66.4853 41.688 65.504 41.688 64.416C41.688 63.328 41.9333 62.352 42.424 61.488C42.9253 60.6133 43.6027 59.936 44.456 59.456C45.3093 58.9653 46.2533 58.72 47.288 58.72C48.3333 58.72 49.2827 58.9653 50.136 59.456C50.9893 59.936 51.6613 60.608 52.152 61.472C52.6427 62.336 52.888 63.3173 52.888 64.416C52.888 65.5147 52.6427 66.496 52.152 67.36C51.6613 68.224 50.9893 68.9013 50.136 69.392C49.2827 69.872 48.3333 70.112 47.288 70.112ZM47.288 68.848C48.0667 68.848 48.7653 68.6667 49.384 68.304C50.0133 67.9413 50.504 67.424 50.856 66.752C51.2187 66.08 51.4 65.3013 51.4 64.416C51.4 63.52 51.2187 62.7413 50.856 62.08C50.504 61.408 50.0187 60.8907 49.4 60.528C48.7813 60.1653 48.0773 59.984 47.288 59.984C46.4987 59.984 45.7947 60.1653 45.176 60.528C44.5573 60.8907 44.0667 61.408 43.704 62.08C43.352 62.7413 43.176 63.52 43.176 64.416C43.176 65.3013 43.352 66.08 43.704 66.752C44.0667 67.424 44.5573 67.9413 45.176 68.304C45.8053 68.6667 46.5093 68.848 47.288 68.848ZM58.0741 68.656L60.7941 61.232H62.3461L58.9061 70H57.2101L53.7701 61.232H55.3381L58.0741 68.656ZM71.7789 65.28C71.7789 65.5573 71.7629 65.8507 71.7309 66.16H64.7229C64.7762 67.024 65.0695 67.7013 65.6029 68.192C66.1469 68.672 66.8029 68.912 67.5709 68.912C68.2002 68.912 68.7229 68.768 69.1389 68.48C69.5655 68.1813 69.8642 67.7867 70.0349 67.296H71.6029C71.3682 68.1387 70.8989 68.8267 70.1949 69.36C69.4909 69.8827 68.6162 70.144 67.5709 70.144C66.7389 70.144 65.9922 69.9573 65.3309 69.584C64.6802 69.2107 64.1682 68.6827 63.7949 68C63.4215 67.3067 63.2349 66.5067 63.2349 65.6C63.2349 64.6933 63.4162 63.8987 63.7789 63.216C64.1415 62.5333 64.6482 62.0107 65.2989 61.648C65.9602 61.2747 66.7175 61.088 67.5709 61.088C68.4029 61.088 69.1389 61.2693 69.7789 61.632C70.4189 61.9947 70.9095 62.496 71.2509 63.136C71.6029 63.7653 71.7789 64.48 71.7789 65.28ZM70.2749 64.976C70.2749 64.4213 70.1522 63.9467 69.9069 63.552C69.6615 63.1467 69.3255 62.8427 68.8989 62.64C68.4829 62.4267 68.0189 62.32 67.5069 62.32C66.7709 62.32 66.1415 62.5547 65.6189 63.024C65.1069 63.4933 64.8135 64.144 64.7389 64.976H70.2749ZM75.1568 62.656C75.4128 62.1547 75.7754 61.7653 76.2448 61.488C76.7248 61.2107 77.3061 61.072 77.9888 61.072V62.576H77.6048C75.9728 62.576 75.1568 63.4613 75.1568 65.232V70H73.7008V61.232H75.1568V62.656ZM79.1255 65.584C79.1255 64.688 79.3068 63.904 79.6695 63.232C80.0322 62.5493 80.5282 62.0213 81.1575 61.648C81.7975 61.2747 82.5068 61.088 83.2855 61.088C84.0535 61.088 84.7202 61.2533 85.2855 61.584C85.8508 61.9147 86.2722 62.3307 86.5495 62.832V61.232H88.0215V70H86.5495V68.368C86.2615 68.88 85.8295 69.3067 85.2535 69.648C84.6882 69.9787 84.0268 70.144 83.2695 70.144C82.4908 70.144 81.7868 69.952 81.1575 69.568C80.5282 69.184 80.0322 68.6453 79.6695 67.952C79.3068 67.2587 79.1255 66.4693 79.1255 65.584ZM86.5495 65.6C86.5495 64.9387 86.4162 64.3627 86.1495 63.872C85.8828 63.3813 85.5202 63.008 85.0615 62.752C84.6135 62.4853 84.1175 62.352 83.5735 62.352C83.0295 62.352 82.5335 62.48 82.0855 62.736C81.6375 62.992 81.2802 63.3653 81.0135 63.856C80.7468 64.3467 80.6135 64.9227 80.6135 65.584C80.6135 66.256 80.7468 66.8427 81.0135 67.344C81.2802 67.8347 81.6375 68.2133 82.0855 68.48C82.5335 68.736 83.0295 68.864 83.5735 68.864C84.1175 68.864 84.6135 68.736 85.0615 68.48C85.5202 68.2133 85.8828 67.8347 86.1495 67.344C86.4162 66.8427 86.5495 66.2613 86.5495 65.6ZM91.938 58.16V70H90.482V58.16H91.938ZM95.8755 58.16V70H94.4195V58.16H95.8755ZM108.495 70L105.839 65.44H104.079V70H102.623V58.848H106.223C107.065 58.848 107.775 58.992 108.351 59.28C108.937 59.568 109.375 59.9573 109.663 60.448C109.951 60.9387 110.095 61.4987 110.095 62.128C110.095 62.896 109.871 63.5733 109.423 64.16C108.985 64.7467 108.324 65.136 107.439 65.328L110.239 70H108.495ZM104.079 64.272H106.223C107.012 64.272 107.604 64.08 107.999 63.696C108.393 63.3013 108.591 62.7787 108.591 62.128C108.591 61.4667 108.393 60.9547 107.999 60.592C107.615 60.2293 107.023 60.048 106.223 60.048H104.079V64.272ZM111.813 65.584C111.813 64.688 111.994 63.904 112.357 63.232C112.72 62.5493 113.216 62.0213 113.845 61.648C114.485 61.2747 115.194 61.088 115.973 61.088C116.741 61.088 117.408 61.2533 117.973 61.584C118.538 61.9147 118.96 62.3307 119.237 62.832V61.232H120.709V70H119.237V68.368C118.949 68.88 118.517 69.3067 117.941 69.648C117.376 69.9787 116.714 70.144 115.957 70.144C115.178 70.144 114.474 69.952 113.845 69.568C113.216 69.184 112.72 68.6453 112.357 67.952C111.994 67.2587 111.813 66.4693 111.813 65.584ZM119.237 65.6C119.237 64.9387 119.104 64.3627 118.837 63.872C118.57 63.3813 118.208 63.008 117.749 62.752C117.301 62.4853 116.805 62.352 116.261 62.352C115.717 62.352 115.221 62.48 114.773 62.736C114.325 62.992 113.968 63.3653 113.701 63.856C113.434 64.3467 113.301 64.9227 113.301 65.584C113.301 66.256 113.434 66.8427 113.701 67.344C113.968 67.8347 114.325 68.2133 114.773 68.48C115.221 68.736 115.717 68.864 116.261 68.864C116.805 68.864 117.301 68.736 117.749 68.48C118.208 68.2133 118.57 67.8347 118.837 67.344C119.104 66.8427 119.237 66.2613 119.237 65.6ZM124.946 62.432V67.6C124.946 68.0267 125.036 68.3307 125.218 68.512C125.399 68.6827 125.714 68.768 126.161 68.768H127.234V70H125.922C125.111 70 124.503 69.8133 124.098 69.44C123.692 69.0667 123.49 68.4533 123.49 67.6V62.432H122.354V61.232H123.49V59.024H124.946V61.232H127.234V62.432H124.946ZM129.75 59.808C129.472 59.808 129.238 59.712 129.046 59.52C128.854 59.328 128.758 59.0933 128.758 58.816C128.758 58.5387 128.854 58.304 129.046 58.112C129.238 57.92 129.472 57.824 129.75 57.824C130.016 57.824 130.24 57.92 130.422 58.112C130.614 58.304 130.71 58.5387 130.71 58.816C130.71 59.0933 130.614 59.328 130.422 59.52C130.24 59.712 130.016 59.808 129.75 59.808ZM130.454 61.232V70H128.998V61.232H130.454ZM137.207 61.072C138.274 61.072 139.138 61.3973 139.799 62.048C140.46 62.688 140.791 63.616 140.791 64.832V70H139.351V65.04C139.351 64.1653 139.132 63.4987 138.695 63.04C138.258 62.5707 137.66 62.336 136.903 62.336C136.135 62.336 135.522 62.576 135.063 63.056C134.615 63.536 134.391 64.2347 134.391 65.152V70H132.935V61.232H134.391V62.48C134.679 62.032 135.068 61.6853 135.559 61.44C136.06 61.1947 136.61 61.072 137.207 61.072ZM146.786 61.088C147.543 61.088 148.204 61.2533 148.77 61.584C149.346 61.9147 149.772 62.3307 150.05 62.832V61.232H151.522V70.192C151.522 70.992 151.351 71.7013 151.01 72.32C150.668 72.9493 150.178 73.44 149.538 73.792C148.908 74.144 148.172 74.32 147.33 74.32C146.178 74.32 145.218 74.048 144.45 73.504C143.682 72.96 143.228 72.2187 143.09 71.28H144.53C144.69 71.8133 145.02 72.24 145.522 72.56C146.023 72.8907 146.626 73.056 147.33 73.056C148.13 73.056 148.78 72.8053 149.282 72.304C149.794 71.8027 150.05 71.0987 150.05 70.192V68.352C149.762 68.864 149.335 69.2907 148.77 69.632C148.204 69.9733 147.543 70.144 146.786 70.144C146.007 70.144 145.298 69.952 144.658 69.568C144.028 69.184 143.532 68.6453 143.17 67.952C142.807 67.2587 142.626 66.4693 142.626 65.584C142.626 64.688 142.807 63.904 143.17 63.232C143.532 62.5493 144.028 62.0213 144.658 61.648C145.298 61.2747 146.007 61.088 146.786 61.088ZM150.05 65.6C150.05 64.9387 149.916 64.3627 149.65 63.872C149.383 63.3813 149.02 63.008 148.562 62.752C148.114 62.4853 147.618 62.352 147.074 62.352C146.53 62.352 146.034 62.48 145.586 62.736C145.138 62.992 144.78 63.3653 144.514 63.856C144.247 64.3467 144.114 64.9227 144.114 65.584C144.114 66.256 144.247 66.8427 144.514 67.344C144.78 67.8347 145.138 68.2133 145.586 68.48C146.034 68.736 146.53 68.864 147.074 68.864C147.618 68.864 148.114 68.736 148.562 68.48C149.02 68.2133 149.383 67.8347 149.65 67.344C149.916 66.8427 150.05 66.2613 150.05 65.6Z" fill="#023047"/>
<path d="M144.625 26.325H128.881L124 11.0625L119.119 26.325H103.375L116.094 35.7438L111.281 50.9375L124 41.5187L136.719 50.9375L131.838 35.675L144.625 26.325Z" fill="#FFCE31"/>
<defs>
<linearGradient id="paint0_linear_11_41" x1="95.5" y1="3" x2="95.5" y2="98" gradientUnits="userSpaceOnUse">
<stop stop-color="#6F7DFB"/>
<stop offset="1" stop-color="#3B448F"/>
</linearGradient>
</defs>
</svg>
